# xmcd CD database file
#
# Track frame offsets:
#	150
#	56488
#	96922
#	127705
#	134814
#	147480
#	187965
#	237257
#	265715
#	268097
#	281588
#	294499
#	306558
#
# Disc length: 4366 seconds
#
# Revision: 0
# Processed by: cddbd v1.5.1PL2 Copyright (c) Steve Scherf et al.
# Submitted via: CDex 1.51
#
DISCID=cc110c0d
DTITLE=Carlos Michelini - Chacarera Below Zero
DYEAR=2003
DGENRE=Jazz
TTITLE0=Carnavalito de la Esperanza
TTITLE1=El Lauchin
TTITLE2=Zamba para la viuda
TTITLE3=Estacion Piazzola
TTITLE4=Marginal
TTITLE5=Rain Of Peace
TTITLE6=Chacarera Below Zero
TTITLE7=Chorinio
TTITLE8=Breve
TTITLE9=Argentina Expire '03
TTITLE10=Nostalgia From Nowhere
TTITLE11=Desaparecidos
TTITLE12=Si llega a ser tucumana
EXTD=YEAR: 2003
EXTT0=
EXTT1=
EXTT2=
EXTT3=
EXTT4=
EXTT5=
EXTT6=
EXTT7=
EXTT8=
EXTT9=
EXTT10=
EXTT11=
EXTT12=
PLAYORDER=
